<?xml version="1.0" encoding="UTF-8"?>
<svg width="104px" height="47px" viewBox="0 0 104 47" version="1.1" xmlns="http://www.w3.org/2000/svg" xmlns:xlink="http://www.w3.org/1999/xlink">
    <!-- Generator: Sketch 52.4 (67378) - http://www.bohemiancoding.com/sketch -->
    <title>Logo-white</title>
    <desc>Created with Sketch.</desc>
    <g id="Landings-pre-launch" stroke="none" stroke-width="1" fill="none" fill-rule="evenodd">
        <g id="Desktop-—-Landing-—-Home" transform="translate(-100.000000, -3122.000000)" fill="#FFFFFF">
            <g id="Footer" transform="translate(0.000000, 3014.000000)">
                <g id="Left" transform="translate(100.000000, 105.000000)">
                    <g id="Logo-white">
                        <g id="SingularCover_logo_2lines@1x" transform="translate(0.000000, 3.780000)">
                            <path d="M8.25249288,21.8260189 C5.48301223,21.8260189 3.49681902,21.1749185 2.15404052,20.0142612 C0.811262026,18.8536039 0.111898204,17.2116985 0,15.173471 L4.33605559,15.173471 C4.4479538,16.0793499 4.67175021,16.9286113 5.25921578,17.4947856 C5.8466814,18.0892686 6.76984163,18.4855906 8.25249288,18.4855906 C10.2666606,18.4855906 11.55349,17.3815508 11.55349,15.7962627 C11.55349,15.0036188 11.3296936,14.4657532 10.7702026,14.0411225 C10.182737,13.6731091 9.23160221,13.390022 7.77692551,13.1635523 C5.20326668,12.8238477 3.41289536,12.2859821 2.26593873,11.2951771 C1.06303299,10.3609896 0.55949102,8.97386251 0.55949102,7.02056123 C0.55949102,5.29372961 1.28682939,3.79336775 2.54568424,2.68932788 C3.80453908,1.64190543 5.62288499,0.990805019 7.83287461,0.990805019 C12.3367775,0.990805019 14.9663854,3.00072372 15.3300546,7.04886994 L11.1618463,7.04886994 C10.9100753,5.23711218 9.76311868,4.35954207 7.83287461,4.35954207 C5.81870685,4.35954207 4.83959751,5.29372961 4.83959751,6.65254791 C4.83959751,7.36026579 5.00744482,7.92644011 5.56693589,8.29445338 C6.09845236,8.71908408 7.02161259,9.00217122 8.56021294,9.22864097 C10.993999,9.54003682 12.8123449,10.0495937 14.0432252,10.9554725 C15.2741055,11.8896601 15.8895456,13.3050959 15.8895456,15.371632 C15.8895456,17.1833897 15.1622073,18.7969865 13.8474033,19.9293351 C12.5325994,21.0899924 10.6023553,21.8260189 8.25249288,21.8260189 Z M19.8386199,4.69924663 C18.523816,4.69924663 17.5447067,3.73675032 17.5447067,2.46285817 C17.5447067,1.18896601 18.523816,0.226469708 19.8386199,0.226469708 C21.1534239,0.226469708 22.1605078,1.18896601 22.1605078,2.46285817 C22.1605078,3.73675032 21.1534239,4.69924663 19.8386199,4.69924663 Z M17.8524267,6.70916538 L21.8807623,6.70916538 L21.8807623,21.5146231 L17.8524267,21.5146231 L17.8524267,6.70916538 Z M24.5430072,6.70916538 L28.5993173,6.70916538 L28.5993173,9.05878869 C29.3546302,7.5867355 30.8932305,6.36946077 33.354991,6.36946077 C34.8096677,6.36946077 36.0125734,6.82240023 36.907759,7.72827907 C37.7749705,8.66246666 38.2785125,10.1345198 38.2785125,12.0878211 L38.2785125,21.5146231 L34.2222021,21.5146231 L34.2222021,12.6823042 C34.2222021,10.6440767 33.4389147,9.7098891 31.6485434,9.7098891 C29.8861467,9.7098891 28.5993173,10.7856203 28.5993173,12.9653913 L28.5993173,21.5146231 L24.5430072,21.5146231 L24.5430072,6.70916538 Z M47.1790821,26.978205 C44.8292198,26.978205 43.0668231,26.4686481 41.9198665,25.5627693 C40.7169608,24.6568904 40.1015207,23.3829983 39.9056989,21.8260189 L43.9340342,21.8260189 C44.1858052,23.1565285 45.0809908,23.9774813 47.1790821,23.9774813 C49.6408431,23.9774813 50.8717233,22.7035891 50.8717233,20.3539658 L50.8717233,18.1175773 C50.4521051,18.8252952 49.8366649,19.5330131 49.025403,20.0142612 C48.214141,20.5521268 47.2630058,20.8635226 46.1719983,20.8635226 C44.381627,20.8635226 42.7870776,20.1841135 41.6680956,18.9668388 C40.521139,17.7495641 39.7938006,15.966115 39.7938006,13.786344 L39.7938006,13.588183 C39.7938006,11.4650294 40.4931644,9.65327168 41.640121,8.37937952 C42.7870776,7.13379608 44.4096016,6.36946077 46.2279474,6.36946077 C48.6057847,6.36946077 50.0045122,7.41688322 50.8717233,8.91724508 L50.8717233,6.70916538 L54.9000587,6.70916538 L54.9000587,20.3539658 C54.8720841,24.7701253 52.0186799,26.978205 47.1790821,26.978205 Z M47.374904,17.7778728 C49.5009703,17.7778728 50.9836215,16.2492022 50.9836215,13.7297266 L50.9836215,13.5315656 C50.9836215,11.01209 49.6967922,9.4834194 47.4588276,9.4834194 C45.192889,9.4834194 43.9340342,11.0970161 43.9340342,13.5598743 L43.9340342,13.786344 C43.9340342,16.2775109 45.3607363,17.7778728 47.374904,17.7778728 Z M62.290003,21.8260189 C60.8633009,21.8260189 59.6324207,21.4013882 58.737235,20.4955094 C57.8420489,19.5896305 57.3105325,18.1741948 57.3105325,16.2492022 L57.3105325,6.70916538 L61.3388683,6.70916538 L61.3388683,15.6830279 C61.3388683,17.6363292 62.2060794,18.6554429 63.8845524,18.6554429 C65.591,18.6554429 66.9337785,17.5797118 66.9337785,15.3999408 L66.9337785,6.70916538 L70.9621143,6.70916538 L70.9621143,21.5146231 L66.9337785,21.5146231 L66.9337785,19.1933085 C66.1784656,20.6936704 64.723789,21.8260189 62.290003,21.8260189 Z M73.5963845,0 L77.6247199,0 L77.6247199,21.5146231 L73.5963845,21.5146231 L73.5963845,0 Z M84.2034023,21.8260189 C82.8606238,21.8260189 81.6577181,21.4863144 80.7625325,20.7785965 C79.8673469,20.0708787 79.3078558,18.9668388 79.3078558,17.4098595 C79.3078558,15.6830279 80.0911433,14.4940619 81.4339217,13.7297266 C82.7767002,12.9653913 84.6789696,12.6539954 86.9169337,12.6539954 L88.5674322,12.6539954 L88.5674322,12.0595124 C88.5674322,10.2760634 88.0638903,9.34187583 86.1895954,9.34187583 C84.595046,9.34187583 83.8956822,10.1628285 83.6998603,11.4367207 L79.8673469,11.4367207 C79.9792451,9.7098891 80.7625325,8.40768824 81.9094891,7.5867355 C83.0564457,6.76578281 84.6509951,6.36946077 86.4413663,6.36946077 C88.2317376,6.36946077 89.7423634,6.73747409 90.8613454,7.61504421 C91.9523534,8.49261438 92.5677935,9.85143267 92.5677935,11.8613514 L92.5677935,21.5146231 L88.6233813,21.5146231 L88.6233813,19.7311741 C87.7561702,20.9484488 86.52529,21.8260189 84.2034023,21.8260189 Z M85.406308,18.9668388 C87.1966792,18.9668388 88.5674322,18.0043425 88.5674322,16.3341283 L88.5674322,15.0885449 L87.0008574,15.0885449 C84.6509951,15.0885449 83.2802421,15.5981017 83.2802421,17.1833897 C83.2802421,18.2874296 83.9236567,18.9668388 85.406308,18.9668388 Z M94.9782673,6.70916538 L99.0345772,6.70916538 L99.0345772,9.54003682 C99.9577374,7.53011807 101.384439,6.51100434 103.762277,6.48269562 L103.762277,10.3043721 C100.741025,10.2760634 99.0345772,11.2668684 99.0345772,14.0977399 L99.0345772,21.5146231 L94.9782673,21.5146231 L94.9782673,6.70916538 Z M9.98691509,45.3599961 C4.19618279,45.3599961 0.643414674,41.3401588 0.643414674,35.1122413 L0.643414674,34.8857716 C0.643414674,28.8843244 4.58782655,24.5530909 10.0428642,24.5530909 C14.2110725,24.5530909 17.7078915,26.7894793 18.1554843,31.1773302 L15.7496728,31.1773302 C15.2181564,28.0916802 13.5117087,26.5063922 10.0708387,26.5063922 C5.93060505,26.5063922 3.16112441,29.7618945 3.16112441,34.8574629 L3.16112441,35.0839326 C3.16112441,40.236119 5.73478319,43.3500774 10.0428642,43.3500774 C13.3158868,43.3500774 15.553851,41.7081721 16.0853675,38.3960521 L18.3513062,38.3960521 C17.6519424,43.0669903 14.4628434,45.3599961 9.98691509,45.3599961 Z M26.9161816,43.4066949 C29.8535097,43.4066949 31.6998301,41.1703065 31.6998301,37.8298778 L31.6998301,37.6317168 C31.6998301,34.2063625 29.8255352,31.9982829 26.9161816,31.9982829 C23.9788536,31.9982829 22.1325332,34.2063625 22.1325332,37.6034081 L22.1325332,37.8298778 C22.1325332,41.2269239 23.9229045,43.4066949 26.9161816,43.4066949 Z M26.8882071,45.3599961 C22.7199988,45.3599961 19.7267217,42.1611115 19.7267217,37.8298778 L19.7267217,37.6034081 C19.7267217,33.1589401 22.7759479,30.0449816 26.9161816,30.0449816 C31.0564154,30.0449816 34.1056415,33.1306314 34.1056415,37.5750994 L34.1056415,37.8015691 C34.1056415,42.2743463 31.0284409,45.3599961 26.8882071,45.3599961 Z M34.5858713,30.29976 L37.1035809,30.29976 L41.4396367,42.7272857 L45.719743,30.29976 L48.1255544,30.29976 L42.8663388,45.1052177 L39.9010364,45.1052177 L34.5858713,30.29976 Z M55.6833461,45.3599961 C51.5431125,45.3599961 48.6057847,42.3875812 48.6057847,37.8581865 L48.6057847,37.6317168 C48.6057847,33.1589401 51.4312143,30.0449816 55.4595497,30.0449816 C58.8444704,30.0449816 62.0335696,32.1115177 62.0335696,37.4052471 L62.0335696,38.1695824 L51.0115961,38.1695824 C51.1234943,41.5666285 52.6900691,43.4066949 55.7113206,43.4066949 C58.0052338,43.4066949 59.2920632,42.5574335 59.5997832,40.8306019 L61.9216714,40.8306019 C61.390155,43.8030169 59.0123177,45.3599961 55.6833461,45.3599961 Z M59.6557328,36.2728986 C59.4319359,33.2155575 57.8933356,31.9982829 55.4595497,31.9982829 C53.0817128,31.9982829 51.515138,33.6401882 51.0955197,36.2728986 L59.6557328,36.2728986 Z M64.5279671,30.29976 L66.8498548,30.29976 L66.8498548,32.9607791 C67.7450405,31.290565 69.0318698,30.1299078 71.6614781,30.0449816 L71.6614781,32.2530613 C68.7241498,32.3946048 66.8498548,33.3287924 66.8498548,36.9806164 L66.8498548,45.1052177 L64.5279671,45.1052177 L64.5279671,30.29976 Z" id="Singular-Cover" fill-rule="nonzero"></path>
                        </g>
                    </g>
                </g>
            </g>
        </g>
    </g>
</svg>