<?xml version="1.0" encoding="UTF-8"?>
<svg width="122px" height="54px" viewBox="0 0 122 54" version="1.1" xmlns="http://www.w3.org/2000/svg" xmlns:xlink="http://www.w3.org/1999/xlink">
    <!-- Generator: Sketch 52.4 (67378) - http://www.bohemiancoding.com/sketch -->
    <title>Logo@3x</title>
    <desc>Created with Sketch.</desc>
    <g id="Landings-pre-launch" stroke="none" stroke-width="1" fill="none" fill-rule="evenodd">
        <g id="Desktop-—-Landing-—-Home" transform="translate(-100.000000, -13.000000)" fill="#000000">
            <g id="Header-/-Desktop">
                <g id="Header">
                    <g id="Logo" transform="translate(100.000000, 9.000000)">
                        <g id="SingularCover_logo_2lines@1x" transform="translate(0.000000, 4.447433)">
                            <path d="M9.64488115,25.67983 C6.40812445,25.67983 4.08681405,24.9137651 2.51747746,23.548171 C0.948140876,22.1825769 0.130778044,20.2507609 0,17.8526445 L5.06764944,17.8526445 C5.19842748,18.918474 5.45998357,19.9176892 6.1465683,20.5838327 C6.83315309,21.2832833 7.91207201,21.7495837 9.64488115,21.7495837 C11.9988861,21.7495837 13.5028336,20.450604 13.5028336,18.5854023 C13.5028336,17.6528015 13.2412775,17.0199652 12.5873873,16.5203576 C11.9008025,16.0873643 10.7891891,15.7542926 9.08907446,15.4878352 C6.08117928,15.0881492 3.98873052,14.4553129 2.64825551,13.2895618 C1.24239148,12.1904252 0.653890222,10.5583737 0.653890222,8.2601788 C0.653890222,6.22844125 1.50394756,4.46316111 2.97520062,3.16418138 C4.44645367,1.93181599 6.571597,1.16575105 9.15446349,1.16575105 C14.4182799,1.16575105 17.4915641,3.53056026 17.9165928,8.29348597 L13.0451104,8.29348597 C12.7508598,6.1618269 11.4103848,5.12930459 9.15446349,5.12930459 C6.80045858,5.12930459 5.65615064,6.22844125 5.65615064,7.82718552 C5.65615064,8.65986486 5.8523177,9.32600834 6.50620798,9.75900156 C7.12740369,10.2586091 8.20632261,10.5916808 10.0045208,10.8581383 C12.8489433,11.2245172 14.9740867,11.8240462 16.4126452,12.8898758 C17.8512038,13.9890125 18.570483,15.6543711 18.570483,18.0857947 C18.570483,20.2174537 17.7204257,22.1159626 16.1837836,23.4482495 C14.6471416,24.8138436 12.3912202,25.67983 9.64488115,25.67983 Z M23.1858584,5.52899065 C21.6492164,5.52899065 20.5049084,4.39654677 20.5049084,2.89772401 C20.5049084,1.39890125 21.6492164,0.26645737 23.1858584,0.26645737 C24.7225005,0.26645737 25.899503,1.39890125 25.899503,2.89772401 C25.899503,4.39654677 24.7225005,5.52899065 23.1858584,5.52899065 Z M20.864548,7.89379992 L25.5725578,7.89379992 L25.5725578,25.3134511 L20.864548,25.3134511 L20.864548,7.89379992 Z M28.6839856,7.89379992 L33.4246901,7.89379992 L33.4246901,10.6582952 C34.3074419,8.92632223 36.10564,7.49411381 38.982757,7.49411381 C40.6828715,7.49411381 42.0887355,8.0270286 43.1349599,9.09285808 C44.1484903,10.1919948 44.7369915,11.9239678 44.7369915,14.2221627 L44.7369915,25.3134511 L39.9962868,25.3134511 L39.9962868,14.9216133 C39.9962868,12.5234969 39.0808405,11.4243602 36.9883918,11.4243602 C34.9286376,11.4243602 33.4246901,12.6900327 33.4246901,15.254685 L33.4246901,25.3134511 L28.6839856,25.3134511 L28.6839856,7.89379992 Z M55.1392951,31.7417355 C52.3929561,31.7417355 50.3332019,31.1422063 48.992727,30.0763768 C47.586863,29.0105473 46.8675838,27.5117246 46.6387222,25.67983 L51.3467318,25.67983 C51.6409824,27.2452671 52.6872067,28.2111752 55.1392951,28.2111752 C58.0164126,28.2111752 59.4549711,26.7123524 59.4549711,23.9478571 L59.4549711,21.3165904 C58.9645534,22.1492698 58.2452742,22.981949 57.2971334,23.548171 C56.3489925,24.1810073 55.2373786,24.5473862 53.9622927,24.5473862 C51.869844,24.5473862 50.0062568,23.748014 48.6984764,22.3158056 C47.3580014,20.8835972 46.5079441,18.7852453 46.5079441,16.220593 L46.5079441,15.9874428 C46.5079441,13.4894049 47.3253069,11.3577458 48.6657819,9.85892308 C50.0062568,8.39340749 51.9025385,7.49411381 54.0276817,7.49411381 C56.8067157,7.49411381 58.4414412,8.7264792 59.4549711,10.4917593 L59.4549711,7.89379992 L64.1629807,7.89379992 L64.1629807,23.9478571 C64.1302862,29.143776 60.795446,31.7417355 55.1392951,31.7417355 Z M55.3681567,20.9169044 C57.85294,20.9169044 59.5857491,19.1183171 59.5857491,16.1539787 L59.5857491,15.9208285 C59.5857491,12.9564901 58.0818016,11.1579028 55.4662402,11.1579028 C52.8179848,11.1579028 51.3467318,13.0564116 51.3467318,15.9541356 L51.3467318,16.220593 C51.3467318,19.1516242 53.0141519,20.9169044 55.3681567,20.9169044 Z M72.7997812,25.67983 C71.1323612,25.67983 69.6938027,25.1802225 68.6475783,24.1143929 C67.6013534,23.0485634 66.9801577,21.3832048 66.9801577,19.1183171 L66.9801577,7.89379992 L71.6881679,7.89379992 L71.6881679,18.4521736 C71.6881679,20.7503685 72.7016977,21.9494267 74.6633684,21.9494267 C76.6577335,21.9494267 78.2270701,20.6837542 78.2270701,18.1191019 L78.2270701,7.89379992 L82.9350802,7.89379992 L82.9350802,25.3134511 L78.2270701,25.3134511 L78.2270701,22.582263 C77.3443183,24.3475431 75.6442037,25.67983 72.7997812,25.67983 Z M86.0138133,0 L90.7218229,0 L90.7218229,25.3134511 L86.0138133,25.3134511 L86.0138133,0 Z M98.4104827,25.67983 C96.8411461,25.67983 95.4352822,25.280144 94.3890578,24.4474646 C93.3428335,23.6147854 92.6889432,22.3158056 92.6889432,20.4839112 C92.6889432,18.4521736 93.6043895,17.0532723 95.1737261,16.1539787 C96.7430626,15.254685 98.9662894,14.8883062 101.58185,14.8883062 L103.510826,14.8883062 L103.510826,14.1888555 C103.510826,12.0905037 102.922325,10.991367 100.731793,10.991367 C98.8682058,10.991367 98.0508431,11.9572749 97.8219815,13.4560977 L93.3428335,13.4560977 C93.4736115,11.4243602 94.3890578,9.89223025 95.7295328,8.92632223 C97.0700077,7.96041426 98.9335949,7.49411381 101.026044,7.49411381 C103.118492,7.49411381 104.883996,7.92710709 106.191776,8.9596294 C107.466863,9.99215176 108.186142,11.590896 108.186142,13.9557053 L108.186142,25.3134511 L103.576215,25.3134511 L103.576215,23.2150992 C102.562686,24.6473077 101.124127,25.67983 98.4104827,25.67983 Z M99.8163467,22.3158056 C101.908795,22.3158056 103.510826,21.1833617 103.510826,19.2182386 L103.510826,17.752723 L101.679934,17.752723 C98.9335949,17.752723 97.3315638,18.3522521 97.3315638,20.2174537 C97.3315638,21.5164335 98.0835376,22.3158056 99.8163467,22.3158056 Z M111.003319,7.89379992 L115.744023,7.89379992 L115.744023,11.2245172 C116.822942,8.85970789 118.490362,7.66064966 121.269396,7.62734249 L121.269396,12.1238108 C117.738388,12.0905037 115.744023,13.2562547 115.744023,16.5869719 L115.744023,25.3134511 L111.003319,25.3134511 L111.003319,7.89379992 Z M11.6719409,53.3691917 C4.90417683,53.3691917 0.751973755,48.6395734 0.751973755,41.3119952 L0.751973755,41.0455378 C0.751973755,33.9844175 5.36190004,28.8884199 11.7373299,28.8884199 C16.6088123,28.8884199 20.6956263,31.5196866 21.2187385,36.6822984 L18.4070105,36.6822984 C17.7858147,33.0518165 15.7914495,31.1866148 11.7700244,31.1866148 C6.93123662,31.1866148 3.69447992,35.0169398 3.69447992,41.0122306 L3.69447992,41.278688 C3.69447992,47.3405937 6.70237505,51.0043826 11.7373299,51.0043826 C15.5625879,51.0043826 18.1781489,49.0725666 18.7993446,45.175627 L21.4476001,45.175627 C20.6302373,50.6713109 16.9030629,53.3691917 11.6719409,53.3691917 Z M31.4575701,51.0709969 C34.890494,51.0709969 37.0483317,48.4397304 37.0483317,44.5094836 L37.0483317,44.2763334 C37.0483317,40.2461657 34.8577995,37.6482063 31.4575701,37.6482063 C28.0246462,37.6482063 25.8668084,40.2461657 25.8668084,44.2430263 L25.8668084,44.5094836 C25.8668084,48.5063447 27.9592572,51.0709969 31.4575701,51.0709969 Z M31.4248755,53.3691917 C26.5533932,53.3691917 23.0550804,49.6054814 23.0550804,44.5094836 L23.0550804,44.2430263 C23.0550804,39.0138004 26.6187822,35.3500115 31.4575701,35.3500115 C36.296358,35.3500115 39.8600597,38.9804932 39.8600597,44.2097191 L39.8600597,44.4761765 C39.8600597,49.7387101 36.2636635,53.3691917 31.4248755,53.3691917 Z M40.4213155,35.6497761 L43.3638215,35.6497761 L48.4314712,50.2716248 L53.4337314,35.6497761 L56.2454594,35.6497761 L50.0988913,53.0694272 L46.6332731,53.0694272 L40.4213155,35.6497761 Z M65.078427,53.3691917 C60.2396393,53.3691917 56.8067157,49.8719387 56.8067157,44.5427908 L56.8067157,44.2763334 C56.8067157,39.0138004 60.1088613,35.3500115 64.8168709,35.3500115 C68.7729067,35.3500115 72.5000816,37.781435 72.5000816,44.0098761 L72.5000816,44.9091697 L59.6184436,44.9091697 C59.7492217,48.9060308 61.5801143,51.0709969 65.1111215,51.0709969 C67.7920714,51.0709969 69.2960189,50.0717818 69.6556585,48.0400443 L72.3693035,48.0400443 C71.7481078,51.5372973 68.9690738,53.3691917 65.078427,53.3691917 Z M69.7210481,42.6775892 C69.4594915,39.0804147 67.6612934,37.6482063 64.8168709,37.6482063 C62.0378375,37.6482063 60.2069448,39.5800223 59.7165272,42.6775892 L69.7210481,42.6775892 Z M75.4153421,35.6497761 L78.1289865,35.6497761 L78.1289865,38.7806502 C79.1752109,36.8155271 80.6791584,35.449933 83.752443,35.3500115 L83.752443,37.9479709 C80.3195188,38.1145067 78.1289865,39.2136434 78.1289865,43.5102685 L78.1289865,53.0694272 L75.4153421,53.0694272 L75.4153421,35.6497761 Z" id="Singular-Cover" fill-rule="nonzero"></path>
                        </g>
                    </g>
                </g>
            </g>
        </g>
    </g>
</svg>