<?xml version="1.0" encoding="UTF-8"?>
<svg width="98px" height="98px" viewBox="0 0 98 98" version="1.1" xmlns="http://www.w3.org/2000/svg" xmlns:xlink="http://www.w3.org/1999/xlink">
    <!-- Generator: Sketch 52.4 (67378) - http://www.bohemiancoding.com/sketch -->
    <title>icons/affordable_icon</title>
    <desc>Created with Sketch.</desc>
    <g id="Landings-pre-launch" stroke="none" stroke-width="1" fill="none" fill-rule="evenodd">
        <g id="Desktop-—-Landing-—-Home" transform="translate(-671.000000, -790.000000)">
            <g id="Insurance-should-be" transform="translate(205.000000, 690.000000)">
                <g id="icons/affordable_icon" transform="translate(466.000000, 100.000000)">
                    <circle id="Oval" stroke="#FFEC00" stroke-width="12" fill-rule="nonzero" cx="49" cy="49" r="43"></circle>
                    <path d="M49.52,70.32 C38.78,70.32 32,62.52 32,48.66 C32,34.8 38.78,27 49.52,27 C56.9,27 60.98,30.48 63.62,35.34 L58.58,38.76 C56.9,34.98 53.9,32.64 49.52,32.64 C44.18,32.64 40.52,36.12 39.44,41.46 L54.2,41.46 L54.2,46.08 L39.14,46.08 L39.14,51.12 L54.08,51.12 L54.08,55.74 L39.44,55.74 C40.52,61.2 44.18,64.68 49.52,64.68 C54.02,64.68 57.2,62.22 59,58.14 L64.04,61.68 C61.58,66.36 57.32,70.32 49.52,70.32 Z" id="€" fill="#000000" fill-rule="evenodd"></path>
                </g>
            </g>
        </g>
    </g>
</svg>