<?xml version="1.0" encoding="UTF-8"?>
<svg width="39px" height="39px" viewBox="0 0 39 39" version="1.1" xmlns="http://www.w3.org/2000/svg" xmlns:xlink="http://www.w3.org/1999/xlink">
    <!-- Generator: Sketch 52.4 (67378) - http://www.bohemiancoding.com/sketch -->
    <title>Group</title>
    <desc>Created with Sketch.</desc>
    <g id="Landings-pre-launch" stroke="none" stroke-width="1" fill="none" fill-rule="evenodd">
        <g id="Desktop-—-Landing-—-Home" transform="translate(-1207.000000, -3268.000000)">
            <g id="Footer" transform="translate(0.000000, 3014.000000)">
                <g id="Right" transform="translate(1161.000000, 106.000000)">
                    <g id="Social" transform="translate(46.000000, 148.000000)">
                        <g id="Group">
                            <circle id="Oval" stroke="#FFFFFF" opacity="0.200000003" cx="19.5" cy="19.5" r="19"></circle>
                            <path d="M24.2432569,25.2 L21.480516,25.2 L21.480516,20.8627152 L22.8897944,20.8627152 L23.1009499,19.1725866 L21.480516,19.1725866 L21.480516,18.0932229 C21.480516,17.6038788 21.6122298,17.2704293 22.2914713,17.2704293 L23.1579471,17.2701242 L23.1579471,15.7581608 C23.0079234,15.7377206 22.4937671,15.691654 21.8954439,15.691654 C20.6462303,15.691654 19.7909766,16.4793637 19.7909766,17.9260405 L19.7909766,19.1725866 L18.3781544,19.1725866 L18.3781544,20.8627152 L19.7909766,20.8627152 L19.7909766,25.2 L14.5983232,25.2 C14.2678574,25.2 14,24.9229897 14,24.5816082 L14,14.6183918 C14,14.2767052 14.2678574,14 14.5983232,14 L24.2432569,14 C24.5737226,14 24.8415801,14.2767052 24.8415801,14.6183918 L24.8415801,24.5816082 C24.8415801,24.9229897 24.5737226,25.2 24.2432569,25.2 Z" id="Facebook" fill="#FFFFFF" fill-rule="nonzero"></path>
                        </g>
                    </g>
                </g>
            </g>
        </g>
    </g>
</svg>