<?xml version="1.0" encoding="UTF-8"?>
<svg width="98px" height="98px" viewBox="0 0 98 98" version="1.1" xmlns="http://www.w3.org/2000/svg" xmlns:xlink="http://www.w3.org/1999/xlink">
    <!-- Generator: Sketch 52.4 (67378) - http://www.bohemiancoding.com/sketch -->
    <title>icon/tailored</title>
    <desc>Created with Sketch.</desc>
    <g id="Landings-pre-launch" stroke="none" stroke-width="1" fill="none" fill-rule="evenodd">
        <g id="Desktop-—-Landing-—-Home" transform="translate(-1038.000000, -790.000000)" fill-rule="nonzero">
            <g id="Insurance-should-be" transform="translate(205.000000, 690.000000)">
                <g id="icons/tailored" transform="translate(833.000000, 100.000000)">
                    <circle id="Oval" stroke="#FFEC00" stroke-width="12" cx="49" cy="49" r="43"></circle>
                    <path d="M49.5281812,39.8588876 L49.4952216,39.8722041 L53.6063666,49.7516999 L53.6187074,49.7467139 C53.6156011,49.7542982 53.6124959,49.76188 53.6093917,49.7694591 C55.4780881,53.9572018 56.9296755,54.8112077 60.7532695,56.1255682 C63.8127263,57.1772564 66.3143467,57.7800952 67.7326553,60.9378387 C69.4217303,64.698421 68.0513487,68.8733047 64.3887563,70.562773 C60.4948959,72.3589199 56.0684764,70.8810732 54.2200546,66.387496 C54.0437357,65.9588588 52.8073309,62.9412313 50.5108393,57.334614 C48.2143477,62.9412313 46.9779429,65.9588588 46.8016241,66.387496 C44.9532023,70.8810732 40.5267827,72.3589199 36.6329223,70.562773 C32.9703299,68.8733047 31.5999483,64.698421 33.2890234,60.9378387 C34.7073319,57.7800952 37.2089523,57.1772564 40.2684091,56.1255682 C44.0920031,54.8112077 45.5435906,53.9572018 47.4122869,49.7694591 C45.3394311,44.7083582 42.7947362,38.4949117 39.7782017,31.1291195 C39.7745602,31.1202275 39.7709412,31.1113263 39.7673448,31.1024159 C38.5940506,28.1954481 39.9994707,24.8877423 42.9064384,23.7144481 C45.6943745,30.5117019 47.9016221,35.8931817 49.5281812,39.8588876 Z M54.901883,46.6136668 L51.7901008,39.1357404 L58.1152402,23.7144481 C61.0222079,24.8877423 62.427628,28.1954481 61.2543338,31.1024159 C61.2507374,31.1113263 61.2471184,31.1202275 61.2434769,31.1291195 C58.8267615,37.0302698 56.7128969,42.1917855 54.901883,46.6136668 Z M61.2313096,68.3315259 C63.625039,68.3315259 65.56554,66.3910248 65.56554,63.9972955 C65.56554,61.6035661 63.625039,59.663065 61.2313096,59.663065 C58.8375803,59.663065 56.8970792,61.6035661 56.8970792,63.9972955 C56.8970792,66.3910248 58.8375803,68.3315259 61.2313096,68.3315259 Z M39.790369,68.3315259 C42.1840983,68.3315259 44.1245994,66.3910248 44.1245994,63.9972955 C44.1245994,61.6035661 42.1840983,59.663065 39.790369,59.663065 C37.3966396,59.663065 35.4561386,61.6035661 35.4561386,63.9972955 C35.4561386,66.3910248 37.3966396,68.3315259 39.790369,68.3315259 Z M50.4831711,51.0583429 C51.2928149,51.0583429 51.9491608,50.401997 51.9491608,49.5923532 C51.9491608,48.7827094 51.2928149,48.1263635 50.4831711,48.1263635 C49.6735274,48.1263635 49.0171814,48.7827094 49.0171814,49.5923532 C49.0171814,50.401997 49.6735274,51.0583429 50.4831711,51.0583429 Z" id="Combined-Shape" fill="#000000" transform="translate(50.510839, 47.510839) rotate(45.000000) translate(-50.510839, -47.510839) "></path>
                </g>
            </g>
        </g>
    </g>
</svg>