<?xml version="1.0" encoding="UTF-8"?>
<svg width="39px" height="39px" viewBox="0 0 39 39" version="1.1" xmlns="http://www.w3.org/2000/svg" xmlns:xlink="http://www.w3.org/1999/xlink">
    <!-- Generator: Sketch 52.4 (67378) - http://www.bohemiancoding.com/sketch -->
    <title>Group</title>
    <desc>Created with Sketch.</desc>
    <g id="Landings-pre-launch" stroke="none" stroke-width="1" fill="none" fill-rule="evenodd">
        <g id="Desktop-—-Landing-—-Home" transform="translate(-1254.000000, -3268.000000)">
            <g id="Footer" transform="translate(0.000000, 3014.000000)">
                <g id="Right" transform="translate(1161.000000, 106.000000)">
                    <g id="Social" transform="translate(46.000000, 148.000000)">
                        <g id="Group" transform="translate(47.000000, 0.000000)">
                            <circle id="Oval" stroke="#FFFFFF" opacity="0.200000003" cx="19.5" cy="19.5" r="19"></circle>
                            <path d="M26.3799526,15.2430119 C25.9250691,15.4538461 25.4353064,15.5964247 24.9215641,15.66013 C25.4462061,15.3325027 25.8487708,14.8130011 26.0384267,14.1941495 C25.5472106,14.4975081 25.0044023,14.7182015 24.4245349,14.8365114 C23.9623848,14.3215601 23.3018591,14 22.5708482,14 C21.1691385,14 20.0319297,15.1868906 20.0319297,16.6505959 C20.0319297,16.8583966 20.0537292,17.06013 20.0973283,17.2542795 C17.9864072,17.1435536 16.115281,16.0893825 14.8618081,14.483857 C14.6430861,14.8767064 14.5181021,15.3325027 14.5181021,15.8178765 C14.5181021,16.7370531 14.9664458,17.5485374 15.6480444,18.024052 C15.2324001,18.0111593 14.8400085,17.8905742 14.4970293,17.6933911 L14.4970293,17.7260022 C14.4970293,19.0107259 15.3726437,20.0823402 16.5352852,20.3250271 C16.3223765,20.3872156 16.0978414,20.4183099 15.8660397,20.4183099 C15.7025432,20.4183099 15.54268,20.4023835 15.3879034,20.3712892 C15.711263,21.4239437 16.6486428,22.1906825 17.7604188,22.2111593 C16.8913442,22.9225352 15.7955546,23.3464788 14.6060269,23.3464788 C14.4011113,23.3464788 14.1983757,23.3343445 14,23.3100758 C15.1241291,24.0608884 16.4597135,24.5 17.8933959,24.5 C22.5657617,24.5 25.1199398,20.4615385 25.1199398,16.9585049 C25.1199398,16.8432286 25.1177599,16.7279523 25.1134,16.6149513 C25.6097026,16.2410617 26.0406066,15.7746479 26.3799526,15.2430119" id="Twitter" fill="#FFFFFF" fill-rule="nonzero"></path>
                        </g>
                    </g>
                </g>
            </g>
        </g>
    </g>
</svg>