<?xml version="1.0" encoding="UTF-8"?>
<svg width="39px" height="39px" viewBox="0 0 39 39" version="1.1" xmlns="http://www.w3.org/2000/svg" xmlns:xlink="http://www.w3.org/1999/xlink">
    <!-- Generator: Sketch 52.4 (67378) - http://www.bohemiancoding.com/sketch -->
    <title>Group</title>
    <desc>Created with Sketch.</desc>
    <g id="Landings-pre-launch" stroke="none" stroke-width="1" fill="none" fill-rule="evenodd">
        <g id="Desktop-—-Landing-—-Home" transform="translate(-1301.000000, -3268.000000)">
            <g id="Footer" transform="translate(0.000000, 3014.000000)">
                <g id="Right" transform="translate(1161.000000, 106.000000)">
                    <g id="Social" transform="translate(46.000000, 148.000000)">
                        <g id="Group" transform="translate(94.000000, 0.000000)">
                            <circle id="Oval" stroke="#FFFFFF" opacity="0.200000003" cx="19.5" cy="19.5" r="19"></circle>
                            <path d="M26.1408573,18.6093794 C26.136441,18.3442339 26.117114,18.0089901 26.0833273,17.6039575 C26.0493507,17.1986928 26.0007482,16.8365139 25.9375437,16.517395 C25.8652217,16.1589571 25.70816,15.8569177 25.4664298,15.6113801 C25.2246996,15.3657909 24.943342,15.2234271 24.6223805,15.1840822 C23.6190376,15.0614037 22.102864,15 20.073812,15 C18.0447364,15 16.528539,15.0614037 15.5252673,15.1840822 C15.2043534,15.2234013 14.9241116,15.3657909 14.6846608,15.6113801 C14.445115,15.8568403 14.289193,16.1588797 14.216871,16.517395 C14.1491552,16.8366171 14.0982496,17.1987702 14.064368,17.6039575 C14.0305338,18.0089901 14.0113018,18.3441049 14.0068143,18.6093794 C14.0022319,18.8745507 14,19.2428184 14,19.7142857 C14,20.1857014 14.0022319,20.5540723 14.0068381,20.819192 C14.0113255,21.0845181 14.0305576,21.4195813 14.0643917,21.8245881 C14.0982734,22.229827 14.1468758,22.5920059 14.2101516,22.9111764 C14.2824736,23.2697176 14.4394878,23.5717053 14.6812655,23.8171397 C14.9230906,24.0626773 15.2044721,24.2050669 15.5252911,24.244386 C16.5285627,24.3671935 18.0446651,24.4285714 20.0738358,24.4285714 C22.1030776,24.4285714 23.6190614,24.3671935 24.6224042,24.244386 C24.9433657,24.2050927 25.2234887,24.0626773 25.4630345,23.8171397 C25.7025803,23.5716795 25.8584074,23.269537 25.9307294,22.9111764 C25.9984926,22.5920059 26.0493507,22.229827 26.0833273,21.8245881 C26.117114,21.4196071 26.1362985,21.0843633 26.1408573,20.819192 C26.1453922,20.5540723 26.1476716,20.1857014 26.1476716,19.7142857 C26.1476716,19.2428184 26.145416,18.8745507 26.1408573,18.6093794 Z M22.4735676,20.1120685 L19.0028483,22.469121 C18.9395488,22.5182182 18.8626444,22.5427539 18.7723012,22.5427539 C18.7045617,22.5427539 18.6345191,22.5230428 18.5622208,22.4837754 C18.4131131,22.3954881 18.338583,22.2579231 18.338583,22.0713641 L18.338583,17.3572332 C18.338583,17.1707257 18.4131369,17.0331607 18.5622208,16.944796 C18.715911,16.8562766 18.8627393,16.8612302 19.0028483,16.9595278 L22.4735913,19.3166061 C22.6091179,19.3999398 22.6768811,19.5326029 22.6768811,19.7143115 C22.6768811,19.8959428 22.6090941,20.0286574 22.4735676,20.1120685 Z" id="Youtube" fill="#FFFFFF" fill-rule="nonzero"></path>
                        </g>
                    </g>
                </g>
            </g>
        </g>
    </g>
</svg>