<?xml version="1.0" encoding="UTF-8"?>
<svg width="85px" height="24px" viewBox="0 0 85 24" version="1.1" xmlns="http://www.w3.org/2000/svg" xmlns:xlink="http://www.w3.org/1999/xlink">
    <!-- Generator: Sketch 52.4 (67378) - http://www.bohemiancoding.com/sketch -->
    <title>bcntechcity-logo</title>
    <desc>Created with Sketch.</desc>
    <defs>
        <polygon id="path-1" points="3.69695513 3.60163636 3.69695513 0.231818182 0.0642948718 0.231818182 0.0642948718 3.60163636"></polygon>
        <polygon id="path-3" points="0 23.1938182 84.6589103 23.1938182 84.6589103 0.128727273 0 0.128727273"></polygon>
        <polygon id="path-5" points="0 23.1938182 84.6589103 23.1938182 84.6589103 0.128727273 0 0.128727273"></polygon>
        <polygon id="path-7" points="0 23.1938182 84.6589103 23.1938182 84.6589103 0.128727273 0 0.128727273"></polygon>
    </defs>
    <g id="Symbols" stroke="none" stroke-width="1" fill="none" fill-rule="evenodd" opacity="0.5">
        <g id="logos-/-landings" transform="translate(-651.000000, -4.000000)">
            <g id="logos" transform="translate(0.000000, 4.000000)">
                <g id="bcntechcity-logo" transform="translate(651.000000, 0.000000)">
                    <path d="M1.88580128,0.260727273 L0,2.148 L0,8.60018182 L1.88580128,10.4890909 L8.33108974,10.4890909 L10.2185256,8.60018182 L10.2185256,2.14854545 L8.33054487,0.260727273 L1.88580128,0.260727273 Z M2.57778846,7.908 L7.63964744,7.908 L7.63964744,2.84072727 L2.57778846,2.84072727 L2.57778846,7.908 Z" id="Fill-1" fill-opacity="0.8" fill="#000000" fill-rule="nonzero"></path>
                    <path d="M1.88580128,13.0963636 L0,14.9863636 L0,21.4363636 L1.88580128,23.3247273 L8.33108974,23.3247273 L10.2185256,21.4363636 L10.2185256,14.9858182 L8.33108974,13.0969091 L1.88580128,13.0969091 L1.88580128,13.0963636 Z M2.57778846,20.7447273 L7.63964744,20.7447273 L7.63964744,15.6774545 L2.57778846,15.6774545 L2.57778846,20.7447273 Z" id="Fill-2" fill-opacity="0.8" fill="#000000" fill-rule="nonzero"></path>
                    <path d="M14.7071795,13.098 L12.8208333,14.9869091 L12.8208333,21.438 L14.7071795,23.3263636 L21.1524679,23.3263636 L23.0377244,21.438 L23.0377244,14.9869091 L21.1524679,13.098 L14.7071795,13.098 Z M15.3991667,20.7452727 L20.4610256,20.7452727 L20.4610256,15.6785455 L15.3991667,15.6785455 L15.3991667,20.7458182 L15.3991667,20.7452727 Z" id="Fill-3" fill-opacity="0.8" fill="#000000" fill-rule="nonzero"></path>
                    <path d="M14.7071795,0.275454545 L12.8208333,2.16327273 L12.8208333,8.61490909 L14.7071795,10.5038182 L21.1524679,10.5038182 L23.0377244,8.61490909 L23.0377244,2.16327273 L21.1530128,0.275454545 L14.7071795,0.275454545 Z M15.3991667,7.92272727 L20.4610256,7.92272727 L20.4610256,2.85545455 L15.3991667,2.85545455 L15.3991667,7.92272727 Z" id="Fill-4" fill-opacity="0.8" fill="#000000" fill-rule="nonzero"></path>
                    <g id="Group-38" transform="translate(0.000000, 0.132000)">
                        <path d="M29.0503846,9.756 L29.4045513,9.756 C29.7734295,9.756 29.9619551,9.61472727 29.9619551,9.35236364 C29.9619551,9.096 29.7875962,8.96509091 29.4432372,8.96509091 L29.0509295,8.96509091 L29.0509295,9.756 L29.0503846,9.756 Z M29.0503846,8.36727273 L29.3222756,8.36727273 C29.7004167,8.36727273 29.8889423,8.24072727 29.8889423,7.97890909 C29.8889423,7.74109091 29.7102244,7.614 29.3658654,7.614 L29.0503846,7.614 L29.0503846,8.36672727 L29.0503846,8.36727273 Z M29.5500321,7.00745455 C30.3651603,7.00745455 30.7770833,7.30363636 30.7770833,7.88181818 C30.7770833,8.27018182 30.5585897,8.53254545 30.1461218,8.64381818 C30.6119872,8.73109091 30.8642628,9.018 30.8642628,9.44563636 C30.8642628,10.086 30.4082051,10.3772727 29.4819231,10.3772727 L28.1725962,10.3772727 L28.1725962,7.00745455 L29.5500321,7.00745455 Z" id="Fill-5" fill="#000000" fill-rule="nonzero"></path>
                        <path d="M35.7463141,9.02290909 L36.6044872,9.02290909 L36.1827564,7.76018182 L35.7463141,9.02290909 Z M36.7407051,7.00745455 L38.01625,10.3772727 L37.055641,10.3772727 L36.8180769,9.66327273 L35.5234615,9.66327273 L35.270641,10.3778182 L34.3830449,10.3778182 L35.6591346,7.00745455 L36.7407051,7.00745455 Z" id="Fill-7" fill="#000000" fill-rule="nonzero"></path>
                        <path d="M42.4901923,8.46436364 L42.8056731,8.46436364 C43.1936218,8.46436364 43.388141,8.32309091 43.388141,8.04163636 C43.388141,7.73072727 43.1696474,7.59981818 42.7135897,7.59981818 L42.4901923,7.59981818 L42.4901923,8.46436364 Z M42.9511538,7.008 C43.8294872,7.008 44.2659295,7.284 44.2659295,7.88618182 C44.2659295,8.31818182 44.0332692,8.61 43.6017308,8.70709091 C43.8681731,8.80418182 43.9362821,8.99890909 44.0283654,9.26072727 L44.4315705,10.3827273 L43.494391,10.3827273 L43.1990705,9.45490909 C43.0966346,9.13909091 42.9467949,9.06163636 42.6215064,9.06163636 L42.4907372,9.06163636 L42.4907372,10.3827273 L41.611859,10.3827273 L41.611859,7.00745455 L42.950609,7.00745455 L42.9511538,7.008 Z" id="Fill-9" fill="#000000" fill-rule="nonzero"></path>
                        <path d="M50.8991987,7.81363636 C50.6560731,7.66715509 50.3776404,7.58983471 50.0938782,7.59 C49.4193269,7.59 48.9926923,8.01272727 48.9926923,8.67272727 C48.9926923,9.33818182 49.4340385,9.76036364 50.1080449,9.76036364 C50.3695833,9.76036364 50.6463782,9.69763636 50.9324359,9.56672727 L50.9863782,10.3238182 C50.6700438,10.4108 50.3434672,10.4548304 50.0154167,10.4547273 C48.7894551,10.4547273 48.0756731,9.79036364 48.0756731,8.67272727 C48.0756731,7.60909091 48.7894551,6.92454545 49.9483974,6.92454545 C50.3358013,6.92454545 50.6850641,6.98836364 50.9765705,7.11 L50.8991987,7.81363636 Z" id="Fill-11" fill="#000000"></path>
                        <polygon id="Fill-13" fill="#000000" points="57.2453205 7.00745455 57.2453205 7.63909091 55.8052244 7.63909091 55.8052244 8.31818182 57.1630449 8.31818182 57.1630449 8.95963636 55.8052244 8.95963636 55.8052244 9.72654545 57.2981731 9.72654545 57.2981731 10.3778182 54.9078205 10.3778182 54.9078205 7.00745455"></polygon>
                        <polygon id="Fill-15" fill="#000000" points="62.1655128 7.00745455 62.1655128 9.71236364 63.5189744 9.71236364 63.5189744 10.3778182 61.2686538 10.3778182 61.2686538 7.00745455"></polygon>
                        <path d="M67.9389744,8.68309091 C67.9389744,9.37690909 68.259359,9.79036364 68.7099679,9.79036364 C69.1611218,9.79036364 69.4766026,9.37690909 69.4766026,8.68309091 C69.4766026,7.99309091 69.1567628,7.57963636 68.7099679,7.57963636 C68.2648077,7.57963636 67.9389744,7.98818182 67.9389744,8.68309091 M70.38,8.69236364 C70.38,9.80509091 69.7533974,10.4547273 68.7099679,10.4547273 C67.6627244,10.4547273 67.0372115,9.80454545 67.0372115,8.69236364 C67.0372115,7.57963636 67.6676282,6.92454545 68.7099679,6.92454545 C69.7533974,6.92454545 70.3794551,7.57963636 70.3794551,8.69181818" id="Fill-17" fill="#000000" fill-rule="nonzero"></path>
                        <path d="M75.4260577,7.00745455 L76.4013782,9.02727273 C76.4689423,9.16309091 76.5566667,9.40636364 76.6623718,9.756 C76.6129834,9.47860394 76.5856541,9.19772296 76.580641,8.916 L76.580641,7.00745455 L77.3903205,7.00745455 L77.3903205,10.3778182 L76.2749679,10.3778182 L75.2615064,8.28436364 C75.1578884,8.06556117 75.0780604,7.83624444 75.0233974,7.60036364 C75.0866026,8.01818182 75.1160256,8.35309091 75.1160256,8.60018182 L75.1160256,10.3778182 L74.3052564,10.3778182 L74.3052564,7.00745455 L75.4260577,7.00745455 Z" id="Fill-19" fill="#000000"></path>
                        <g id="Group-23" transform="translate(80.961955, 6.775636)">
                            <g id="Fill-21-Clipped">
                                <mask id="mask-2" fill="white">
                                    <use xlink:href="#path-1"></use>
                                </mask>
                                <g id="path-1"></g>
                                <path d="M1.42701923,2.24727273 L2.28573718,2.24727273 L1.86346154,0.984545455 L1.42701923,2.24727273 Z M2.42141026,0.231818182 L3.6975,3.60163636 L2.73634615,3.60163636 L2.49878205,2.88709091 L1.20416667,2.88709091 L0.951891026,3.60163636 L0.0642948718,3.60163636 L1.33929487,0.231818182 L2.42141026,0.231818182 Z" id="Fill-21" fill="#000000" fill-rule="nonzero" mask="url(#mask-2)"></path>
                            </g>
                        </g>
                        <path d="M66.1229167,14.3705455 C65.6991628,14.1153073 65.2138718,13.9806534 64.7193269,13.9810909 C63.5440385,13.9810909 62.7997436,14.7174545 62.7997436,15.8689091 C62.7997436,17.0296364 63.5691026,17.7654545 64.7449359,17.7654545 C65.2015385,17.7654545 65.6832051,17.6552727 66.1823077,17.4272727 L66.2754808,18.7478182 C65.7245402,18.8997337 65.155657,18.9766078 64.5841987,18.9763636 C62.4444872,18.9763636 61.2005449,17.8161818 61.2005449,15.8689091 C61.2005449,14.0154545 62.4444872,12.8209091 64.4659615,12.8209091 C65.1416026,12.8209091 65.7513141,12.9316364 66.2585897,13.1427273 L66.1229167,14.3705455 Z" id="Fill-24" fill="#999999"></path>
                        <polygon id="Fill-26" fill="#999999" points="32.6465385 12.9610909 32.6465385 14.1376364 31.1917308 14.1376364 31.1917308 18.8361818 29.626859 18.8361818 29.626859 14.1381818 28.1720513 14.1381818 28.1720513 12.9616364"></polygon>
                        <polygon id="Fill-28" fill="#999999" points="39.083109 12.9610909 39.083109 14.0612727 36.57125 14.0612727 36.57125 15.2465455 38.9392628 15.2465455 38.9392628 16.3641818 36.5717949 16.3641818 36.5717949 17.7021818 39.1762821 17.7021818 39.1762821 18.8367273 35.0080128 18.8367273 35.0080128 12.9605455"></polygon>
                        <path d="M46.5767308,14.3667273 C46.1529065,14.1111253 45.6673887,13.9762722 45.1725962,13.9767273 C43.9973077,13.9767273 43.2535577,14.7136364 43.2535577,15.8650909 C43.2535577,17.0241818 44.0229167,17.7610909 45.19875,17.7610909 C45.6548077,17.7610909 46.1370192,17.6514545 46.6361218,17.4223636 L46.72875,18.7434545 C46.1708013,18.8961818 45.6128526,18.972 45.0374679,18.972 C42.8983013,18.972 41.6549038,17.8123636 41.6549038,15.8650909 C41.6549038,14.0105455 42.8983013,12.8165455 44.9192308,12.8165455 C45.5959615,12.8165455 46.2045833,12.9272727 46.711859,13.1383636 L46.5767308,14.3667273 Z" id="Fill-30" fill="#999999"></path>
                        <polygon id="Fill-32" fill="#999999" points="50.8991987 12.9610909 50.8991987 15.2050909 52.7261538 15.2050909 52.7261538 12.9610909 54.2904808 12.9610909 54.2904808 18.8361818 52.7266987 18.8361818 52.7266987 16.3816364 50.8991987 16.3816364 50.8991987 18.8361818 49.3354167 18.8361818 49.3354167 12.9616364"></polygon>
                        <g id="Fill-34-Clipped">
                            <mask id="mask-4" fill="white">
                                <use xlink:href="#path-3"></use>
                            </mask>
                            <g id="path-3"></g>
                            <polygon id="Fill-34" fill="#999999" mask="url(#mask-4)" points="68.8810577 18.8361818 70.4459295 18.8361818 70.4459295 12.9610909 68.8810577 12.9610909"></polygon>
                        </g>
                        <g id="Fill-36-Clipped">
                            <mask id="mask-6" fill="white">
                                <use xlink:href="#path-5"></use>
                            </mask>
                            <g id="path-3"></g>
                            <polygon id="Fill-36" fill="#999999" mask="url(#mask-6)" points="77.2791667 12.9610909 77.2791667 14.1376364 75.8249038 14.1376364 75.8249038 18.8361818 74.2600321 18.8361818 74.2600321 14.1381818 72.8052244 14.1381818 72.8052244 12.9616364"></polygon>
                        </g>
                        <g id="Fill-37-Clipped">
                            <mask id="mask-8" fill="white">
                                <use xlink:href="#path-7"></use>
                            </mask>
                            <g id="path-3"></g>
                            <polygon id="Fill-37" fill="#999999" mask="url(#mask-8)" points="80.6208654 12.9610909 81.7966987 15.4412727 82.9638141 12.9610909 84.6463782 12.9610909 82.5159295 16.6358182 82.5159295 18.8361818 80.9510577 18.8361818 80.9510577 16.6527273 78.8451282 12.9616364"></polygon>
                        </g>
                    </g>
                </g>
            </g>
        </g>
    </g>
</svg>