<?xml version="1.0" encoding="UTF-8"?>
<svg width="115px" height="24px" viewBox="0 0 115 24" version="1.1" xmlns="http://www.w3.org/2000/svg" xmlns:xlink="http://www.w3.org/1999/xlink">
    <!-- Generator: Sketch 52.4 (67378) - http://www.bohemiancoding.com/sketch -->
    <title>expansion-bn-logo</title>
    <desc>Created with Sketch.</desc>
    <g id="Symbols" stroke="none" stroke-width="1" fill="none" fill-rule="evenodd" opacity="0.35">
        <g id="logos-/-landings" transform="translate(0.000000, -4.000000)" fill="#000000">
            <g id="logos" transform="translate(0.000000, 4.000000)">
                <g id="expansion-bn-logo">
                    <path d="M114.971033,20.1831325 C114.971033,21.3975904 114.971033,22.5831325 114.971033,23.739759 C114.304786,23.9421687 39.0478589,24.0289157 37.918136,23.826506 C37.8312343,23.5951807 37.7153652,23.3638554 37.6284635,23.1325301 C37.570529,23.0746988 37.5125945,23.0457831 37.4836272,23.0168675 C37.0491184,22.7855422 36.6146096,22.5831325 36.209068,22.3518072 C36.209068,21.6289157 36.209068,20.9060241 36.209068,20.2120482 C36.8753149,20.0096386 113.783375,19.9518072 114.971033,20.1831325 Z" id="Path"></path>
                    <path d="M16.2506297,0.318072289 C16.3375315,1.24337349 16.395466,2.11084337 16.4534005,2.94939759 C16.511335,3.90361446 16.5692695,4.85783133 16.627204,5.78313253 C16.6561713,6.07228916 16.6851385,6.41927711 16.3085642,6.53493976 C15.9319899,6.67951807 15.7871537,6.36144578 15.6133501,6.13012048 C14.8891688,5.14698795 14.1939547,4.13493976 13.4697733,3.15180723 C12.8035264,2.19759036 11.9055416,1.59036145 10.6889169,1.50361446 C9.67506297,1.44578313 8.63224181,1.38795181 7.5604534,1.33012048 C7.5604534,3.78795181 7.5604534,6.18795181 7.5604534,8.55903614 C8.95088161,9.05060241 10.2833753,8.50120482 10.8916877,7.22891566 C11.0944584,6.79518072 11.268262,6.33253012 11.4420655,5.86987952 C11.5869018,5.4939759 11.8476071,5.37831325 12.3400504,5.60963855 C12.3979849,8.09638554 12.3400504,10.6120482 12.3690176,13.1277108 C11.9055416,13.4457831 11.6448363,13.3012048 11.4710327,12.9253012 C11.3261965,12.5783133 11.1813602,12.2313253 11.0365239,11.8843373 C10.3413098,10.3518072 9.32745592,9.86024096 7.5604534,10.2361446 C7.5604534,12.5783133 7.5604534,14.9204819 7.5604534,17.3204819 C7.73425693,17.3493976 7.90806045,17.3783133 8.05289673,17.3493976 C8.95088161,17.3204819 9.8488665,17.2626506 10.7468514,17.2337349 C12.2241814,17.1759036 13.4118388,16.5975904 14.3098237,15.4120482 C14.918136,14.6024096 15.5554156,13.8216867 16.163728,13.0409639 C16.2506297,12.9253012 16.3375315,12.7518072 16.4823678,12.6650602 C16.6561713,12.5493976 16.8879093,12.4048193 17.0327456,12.4626506 C17.1775819,12.5204819 17.3224181,12.8096386 17.2934509,12.9542169 C17.2355164,14.1108434 17.1196474,15.2963855 17.0327456,16.453012 C16.9748111,17.1180723 16.8879093,17.7831325 16.8299748,18.4192771 C16.0478589,18.6506024 1.68010076,18.6506024 1.04282116,18.4481928 C0.840050378,18.0433735 1.12972292,17.9277108 1.41939547,17.8120482 C1.9697733,17.6096386 2.54911839,17.4361446 3.15743073,17.2337349 C3.15743073,12.0289157 3.15743073,6.85301205 3.15743073,1.64819277 C2.6070529,0.98313253 1.41939547,1.38795181 0.955919395,0.54939759 C1.0138539,0.43373494 1.04282116,0.404819277 1.04282116,0.375903614 C1.07178841,0.346987952 1.07178841,0.318072289 1.10075567,0.318072289 C1.21662469,0.289156627 1.30352645,0.260240964 1.41939547,0.260240964 C6.17002519,0.260240964 10.9496222,0.260240964 15.7002519,0.260240964 C15.8740554,0.231325301 16.0188917,0.289156627 16.2506297,0.318072289 Z" id="Path"></path>
                    <path d="M0,23.8554217 C0,22.5542169 0,21.3975904 0,20.1542169 C0.289672544,20.1253012 0.579345088,20.0674699 0.869017632,20.0674699 C10.7758186,20.0674699 20.6826196,20.0674699 30.6183879,20.0674699 C30.8790932,20.0674699 31.1397985,20.0963855 31.4874055,20.1253012 C31.4874055,20.9349398 31.4874055,21.686747 31.4874055,22.5253012 C31.2267003,22.6698795 30.8790932,22.7855422 30.6183879,22.9879518 C30.3576826,23.1903614 30.2128463,23.5373494 29.9521411,23.8843373 C20.0453401,23.8554217 10.0806045,23.8554217 0,23.8554217 Z" id="Path"></path>
                    <path d="M35.6876574,18.7662651 C35.6876574,20.1831325 35.6876574,21.4843373 35.6876574,22.7566265 C36.209068,23.0168675 36.7015113,23.2481928 37.1649874,23.5084337 C37.2229219,23.5373494 37.2229219,23.653012 37.2518892,23.7686747 C37.1649874,23.826506 37.0780856,23.9421687 36.9911839,23.9421687 C34.9924433,23.9710843 33.02267,23.9710843 31.0239295,23.9710843 C30.9080605,23.9710843 30.7921914,23.8554217 30.6763224,23.7975904 C30.8501259,23.1325301 31.5743073,23.2192771 31.9508816,22.7277108 C31.9508816,17.7542169 31.9508816,12.6939759 31.9508816,7.69156627 C31.6032746,7.17108434 30.7342569,7.28674699 30.5314861,6.56385542 C31.0528967,6.2746988 34.268262,6.21686747 35.3400504,6.44819277 C35.3979849,6.7373494 35.4559194,7.02650602 35.5138539,7.37349398 C36.1221662,6.99759036 36.7015113,6.62168675 37.2808564,6.33253012 C40.2644836,4.88674699 42.7846348,6.41927711 43.7695214,9.02168675 C44.6675063,11.4216867 44.5806045,13.7927711 43.1032746,15.9325301 C41.5390428,18.1879518 39.279597,18.939759 36.6435768,18.853012 C36.3828715,18.8240964 36.093199,18.7951807 35.6876574,18.7662651 Z M35.6876574,8.32771084 C35.6876574,8.55903614 35.6586902,8.81927711 35.6586902,9.10843373 C35.6586902,11.3060241 35.6586902,13.5036145 35.6586902,15.7012048 C35.6586902,16.713253 36.3828715,17.5518072 37.3967254,17.7253012 C38.7581864,17.9566265 39.6561713,17.3783133 40.0906801,15.9614458 C40.6700252,14.1108434 40.6700252,12.2313253 40.2355164,10.3228916 C39.743073,8.1253012 37.5994962,7.51807229 35.6876574,8.32771084 Z" id="Shape" fill-rule="nonzero"></path>
                    <path d="M69.115869,17.2626506 C69.4345088,17.8120482 70.3035264,17.6385542 70.4193955,18.3614458 C69.8110831,18.6506024 65.2052897,18.6795181 64.4231738,18.4192771 C64.3652393,17.7253012 65.1763224,17.8120482 65.4370277,17.1759036 C65.4370277,17.146988 65.465995,16.9445783 65.465995,16.7421687 C65.465995,14.7180723 65.4949622,12.7228916 65.465995,10.6987952 C65.4370277,8.38554217 64.4811083,8.06746988 62.5692695,8.38554217 C62.1926952,8.44337349 61.8450882,8.58795181 61.4395466,8.70361446 C61.4105793,9.05060241 61.4105793,9.33975904 61.4105793,9.62891566 C61.4105793,11.913253 61.4105793,14.1975904 61.4105793,16.4819277 C61.4105793,17.060241 61.4974811,17.5518072 62.0768262,17.8120482 C62.2506297,17.8987952 62.3664987,18.0722892 62.5692695,18.3036145 C62.3375315,18.4192771 62.1926952,18.5349398 62.0478589,18.5638554 C60.9760705,18.7084337 56.9206549,18.5927711 56.4282116,18.3903614 C56.5151134,17.6385542 57.384131,17.8120482 57.7607053,17.2337349 C57.7607053,14.1108434 57.7607053,10.8722892 57.7607053,7.69156627 C57.3551637,7.17108434 56.5730479,7.2 56.2833753,6.59277108 C56.8337531,6.2746988 60.1070529,6.18795181 61.0919395,6.47710843 C61.1209068,6.91084337 61.1788413,7.40240964 61.2367758,7.98072289 C61.6712846,7.6626506 61.9899244,7.40240964 62.3375315,7.14216867 C63.3803526,6.39036145 64.5100756,5.89879518 65.813602,5.92771084 C67.4647355,5.95662651 68.6523929,6.93975904 68.9420655,8.58795181 C69.0289673,9.07951807 69.0869018,9.57108434 69.0869018,10.0337349 C69.0869018,12.3759036 69.0869018,14.7180723 69.0579345,17.060241 C69.0869018,17.146988 69.115869,17.2048193 69.115869,17.2626506 Z" id="Path"></path>
                    <path d="M110.944584,17.2048193 C111.350126,17.7831325 112.103275,17.6674699 112.277078,18.3903614 C112.103275,18.4481928 111.929471,18.5638554 111.755668,18.5638554 C110.336272,18.7084337 106.512594,18.5927711 105.991184,18.3614458 C106.078086,17.6385542 106.947103,17.8409639 107.207809,17.3493976 C107.236776,17.2915663 107.265743,17.2626506 107.265743,17.2048193 C107.265743,14.8915663 107.29471,12.5783133 107.265743,10.2650602 C107.265743,9.88915663 107.149874,9.51325301 107.005038,9.16626506 C106.802267,8.6746988 106.425693,8.35662651 105.904282,8.29879518 C104.97733,8.18313253 104.079345,8.29879518 103.18136,8.76144578 C103.18136,11.5951807 103.18136,14.4 103.18136,17.2337349 C103.384131,17.7542169 104.195214,17.6674699 104.282116,18.4192771 C103.615869,18.6795181 102.949622,18.5349398 102.283375,18.5638554 C101.588161,18.5927711 100.86398,18.5927711 100.168766,18.5638554 C99.5025189,18.5349398 98.836272,18.7084337 98.1700252,18.4192771 C98.372796,17.6674699 99.1549118,17.8120482 99.5314861,17.2626506 C99.5314861,14.139759 99.5314861,10.9012048 99.5314861,7.69156627 C99.1549118,7.14216867 98.256927,7.28674699 98.0541562,6.36144578 C99.6763224,6.24578313 101.240554,6.30361446 102.86272,6.30361446 C102.920655,6.91084337 102.949622,7.40240964 102.978589,7.95180723 C103.528967,7.57590361 103.992443,7.17108434 104.513854,6.85301205 C105.498741,6.21686747 106.570529,5.86987952 107.758186,5.92771084 C109.119647,5.98554217 110.162469,6.70843373 110.56801,8.00963855 C110.770781,8.64578313 110.857683,9.33975904 110.88665,10.0048193 C110.915617,12.1156627 110.88665,14.2554217 110.88665,16.3662651 C110.944584,16.713253 110.944584,17.0313253 110.944584,17.2048193 Z" id="Path"></path>
                    <path d="M50.9244332,12.1445783 C50.9244332,11.0457831 51.011335,9.97590361 50.895466,8.93493976 C50.8085642,8.03855422 50.0843829,7.60481928 49.2153652,7.51807229 C48.6360202,7.46024096 48.0277078,7.51807229 47.4193955,7.51807229 C47.6511335,8.00963855 47.940806,8.44337349 48.1146096,8.9060241 C48.4042821,9.71566265 48.1435768,10.4963855 47.5352645,10.9590361 C46.8979849,11.4216867 46,11.4216867 45.3916877,10.9879518 C44.7544081,10.5253012 44.4647355,9.62891566 44.7833753,8.87710843 C45.0151134,8.38554217 45.3337531,7.83614458 45.768262,7.51807229 C47.593199,6.21686747 49.6788413,5.7253012 51.8803526,6.10120482 C53.6473552,6.39036145 54.6032746,7.63373494 54.6032746,9.42650602 C54.6322418,11.7686747 54.6032746,14.1108434 54.6032746,16.453012 C54.6032746,16.7421687 54.6032746,17.060241 54.6032746,17.2048193 C54.9508816,17.8698795 55.8198992,17.6674699 55.9937028,18.5060241 C55.7329975,18.5638554 55.5012594,18.6216867 55.2984887,18.6216867 C54.6032746,18.6506024 53.8790932,18.5927711 53.1838791,18.6506024 C52.256927,18.7084337 51.5037783,18.5349398 51.1561713,17.4939759 C50.779597,17.7542169 50.5188917,18.0144578 50.2002519,18.2168675 C48.8387909,19.0843373 47.4193955,19.4024096 45.8551637,18.7084337 C43.8853904,17.8409639 43.8564232,15.3542169 44.8992443,14.313253 C45.4206549,13.8216867 46.0289673,13.3301205 46.6662469,13.0698795 C47.593199,12.7228916 48.6070529,12.5783133 49.5919395,12.3759036 C50.0264484,12.2313253 50.4609572,12.2024096 50.9244332,12.1445783 Z M50.9823678,13.2433735 C48.7808564,13.0987952 47.8539043,14.1686747 48.0277078,15.6722892 C48.1146096,16.2506024 48.2884131,16.7421687 48.8387909,16.973494 C49.4760705,17.2048193 50.1133501,17.1759036 50.7216625,16.8289157 C50.8375315,16.7710843 50.9534005,16.5686747 50.9534005,16.453012 C50.9823678,15.3831325 50.9823678,14.3421687 50.9823678,13.2433735 Z" id="Shape" fill-rule="nonzero"></path>
                    <path d="M91.9710327,5.78313253 C94.4911839,5.78313253 96.2871537,6.39036145 97.4748111,8.09638554 C98.9521411,10.2072289 99.1549118,12.5493976 98.1989924,14.9204819 C97.2720403,17.1759036 95.5050378,18.4771084 93.0428212,18.7662651 C91.2178841,18.9686747 89.5088161,18.7084337 88.0314861,17.5228916 C87.1624685,16.8578313 86.6120907,15.9614458 86.2355164,14.9493976 C85.511335,12.9253012 85.5692695,10.9301205 86.6120907,9.05060241 C87.8866499,6.82409639 89.8853904,5.81204819 91.9710327,5.78313253 Z M94.9256927,12.346988 C94.9256927,12.0289157 94.9546599,11.6819277 94.9256927,11.3638554 C94.8387909,10.2650602 94.7229219,9.19518072 94.2304786,8.21204819 C93.8539043,7.4313253 93.3035264,6.88192771 92.3765743,6.85301205 C91.3916877,6.82409639 90.7833753,7.34457831 90.406801,8.18313253 C90.2040302,8.58795181 90.059194,9.05060241 89.9722922,9.48433735 C89.5957179,11.2771084 89.5957179,13.0987952 89.9143577,14.8915663 C90.0302267,15.5277108 90.2619647,16.1638554 90.5516373,16.713253 C91.0151134,17.5807229 91.8261965,17.8987952 92.7531486,17.6963855 C93.5062972,17.5228916 93.9697733,17.0024096 94.2594458,16.3084337 C94.8098237,15.0650602 94.9256927,13.7060241 94.9256927,12.346988 Z" id="Shape" fill-rule="nonzero"></path>
                    <path d="M25.1725441,11.7975904 C25.4911839,12.2313253 25.7808564,12.6650602 26.070529,13.0987952 C26.9395466,14.3421687 27.8375315,15.5855422 28.6775819,16.8578313 C28.9672544,17.2915663 29.3148615,17.5807229 29.7783375,17.7831325 C30.0100756,17.8987952 30.2128463,18.1012048 30.5894207,18.3614458 C30.2418136,18.4771084 30.0680101,18.5927711 29.8942065,18.5927711 C28.5037783,18.7373494 24.3324937,18.6216867 23.7821159,18.4192771 C23.7531486,17.6963855 24.593199,17.9277108 24.8828715,17.4072289 C24.2745592,16.453012 23.6662469,15.4120482 22.9420655,14.2554217 C22.1599496,15.3831325 21.4937028,16.3951807 20.7984887,17.4072289 C21.1460957,17.7253012 21.4647355,18.0144578 21.8413098,18.3325301 C21.2040302,18.6506024 18.220403,18.7084337 17.2065491,18.4481928 C17.3224181,18.2746988 17.3803526,18.0144578 17.4962217,17.9566265 C18.7707809,17.4939759 19.465995,16.3662651 20.2770781,15.3831325 C20.9143577,14.6313253 21.52267,13.8795181 22.1889169,13.0987952 C21.7833753,12.4915663 21.406801,11.9421687 21.0302267,11.3638554 C20.2770781,10.2650602 19.5239295,9.16626506 18.7997481,8.03855422 C18.5100756,7.57590361 18.1335013,7.25783133 17.6410579,7.08433735 C17.4093199,6.99759036 17.2355164,6.82409639 16.8589421,6.59277108 C17.2065491,6.44819277 17.3513854,6.36144578 17.5251889,6.33253012 C18.7997481,6.18795181 23.115869,6.30361446 23.6372796,6.5060241 C23.6372796,7.14216867 22.8551637,7.02650602 22.6234257,7.48915663 C23.1448363,8.35662651 23.6662469,9.28192771 24.1876574,10.1783133 C24.2455919,10.2939759 24.361461,10.3807229 24.5062972,10.5542169 C25.1725441,9.51325301 25.7808564,8.53012048 26.3891688,7.51807229 C26.070529,7.2 25.7518892,6.88192771 25.4332494,6.56385542 C26.186398,6.18795181 29.4596977,6.21686747 30.1838791,6.59277108 C29.8942065,6.79518072 29.6914358,7.02650602 29.4017632,7.14216867 C28.7644836,7.40240964 28.3010076,7.80722892 27.895466,8.35662651 C27.1712846,9.28192771 26.418136,10.1783133 25.6939547,11.0746988 C25.5201511,11.3060241 25.3753149,11.5373494 25.1725441,11.7975904 Z" id="Path"></path>
                    <path d="M70.8828715,18.1301205 C70.8539043,16.973494 70.7959698,15.9036145 70.7670025,14.8626506 C70.7670025,14.6891566 70.9118388,14.3710843 71.0277078,14.3421687 C71.2304786,14.313253 71.5201511,14.4 71.6360202,14.5445783 C72.070529,15.0361446 72.4471033,15.5566265 72.8816121,16.0481928 C73.2581864,16.453012 73.663728,16.8578313 74.127204,17.2048193 C74.4168766,17.4361446 74.7934509,17.5807229 75.1700252,17.6674699 C76.1259446,17.8698795 76.8501259,17.5228916 77.1397985,16.8 C77.4874055,15.9903614 77.2846348,15.1518072 76.4735516,14.660241 C75.720403,14.1975904 74.8803526,13.8795181 74.0403023,13.5036145 C73.1133501,13.0987952 72.186398,12.6939759 71.5491184,11.8843373 C70.47733,10.5542169 70.5062972,8.79036145 71.6360202,7.48915663 C72.4760705,6.5060241 73.5768262,6.01445783 74.8224181,5.84096386 C76.0680101,5.69638554 77.313602,5.81204819 78.559194,6.07228916 C79.0516373,6.18795181 79.2544081,6.39036145 79.2544081,6.91084337 C79.2544081,7.6626506 79.2833753,8.44337349 79.2833753,9.19518072 C79.2833753,9.39759036 79.1095718,9.71566265 78.9647355,9.74457831 C78.8198992,9.80240964 78.5302267,9.62891566 78.3853904,9.45542169 C77.9219144,8.93493976 77.5743073,8.35662651 77.081864,7.8939759 C76.6763224,7.51807229 76.2128463,7.17108434 75.6914358,6.93975904 C74.9382872,6.62168675 74.127204,6.99759036 73.8085642,7.63373494 C73.4899244,8.26987952 73.663728,9.19518072 74.2720403,9.62891566 C74.7644836,9.97590361 75.2858942,10.2361446 75.836272,10.4963855 C76.6763224,10.9012048 77.5453401,11.1903614 78.3564232,11.6819277 C80.384131,12.9253012 80.7896725,15.2385542 79.2833753,17.060241 C78.8488665,17.5807229 78.2405542,18.0144578 77.6032746,18.3036145 C75.372796,19.286747 73.1712846,18.853012 70.8828715,18.1301205 Z" id="Path"></path>
                    <path d="M81.3110831,7.74939759 C80.9345088,7.14216867 80.0365239,7.28674699 79.8627204,6.56385542 C80.4130982,6.2746988 83.7732997,6.18795181 84.9319899,6.44819277 C85.0188917,8.21204819 84.9609572,10.0337349 84.9609572,11.826506 C84.9609572,13.6481928 84.9609572,15.4698795 84.9609572,17.146988 C85.279597,17.7831325 86.1196474,17.6385542 86.3224181,18.3903614 C85.627204,18.7084337 84.8740554,18.5060241 84.1788413,18.5638554 C83.4836272,18.5927711 82.7594458,18.5927711 82.0642317,18.5638554 C81.3690176,18.5349398 80.615869,18.7084337 79.8916877,18.4192771 C80.0944584,17.6385542 80.9634761,17.8120482 81.3110831,17.2048193 C81.3110831,14.1108434 81.3110831,10.9301205 81.3110831,7.74939759 Z" id="Path"></path>
                    <path d="M83.0201511,0.231325301 C84.2657431,0.231325301 85.1926952,1.15662651 85.1926952,2.37108434 C85.1926952,3.61445783 84.2078086,4.5686747 82.9332494,4.5686747 C81.7745592,4.53975904 80.7607053,3.52771084 80.7607053,2.34216867 C80.7896725,1.15662651 81.7455919,0.231325301 83.0201511,0.231325301 Z" id="Path"></path>
                    <path d="M92.115869,0.289156627 C93.47733,0.289156627 94.6939547,0.289156627 95.9974811,0.289156627 C95.8816121,0.520481928 95.8526448,0.693975904 95.7367758,0.838554217 C95.0415617,1.90843373 94.3463476,2.97831325 93.6511335,4.04819277 C93.4193955,4.42409639 93.1297229,4.62650602 92.6662469,4.59759036 C92.1738035,4.5686747 91.6523929,4.59759036 90.9861461,4.59759036 C91.3916877,3.03614458 91.7392947,1.67710843 92.115869,0.289156627 Z" id="Path"></path>
                </g>
            </g>
        </g>
    </g>
</svg>