<?xml version="1.0" encoding="UTF-8"?>
<svg width="158px" height="24px" viewBox="0 0 158 24" version="1.1" xmlns="http://www.w3.org/2000/svg" xmlns:xlink="http://www.w3.org/1999/xlink">
    <!-- Generator: Sketch 52.4 (67378) - http://www.bohemiancoding.com/sketch -->
    <title>la-vanguardia-logo</title>
    <desc>Created with Sketch.</desc>
    <g id="Symbols" stroke="none" stroke-width="1" fill="none" fill-rule="evenodd" opacity="0.45">
        <g id="logos-/-landings" transform="translate(-171.000000, -4.000000)">
            <g id="logos" transform="translate(0.000000, 4.000000)">
                <g id="la-vanguardia-logo" transform="translate(171.000000, 0.000000)">
                    <polygon id="Fill-1" fill="#4D4D4D" points="0.247744186 23.7323077 157.47286 23.7323077 157.47286 0.173538462 0.247744186 0.173538462"></polygon>
                    <path d="M153.055988,18.8953846 L153.055988,18.1384615 L151.547337,17.7452308 L146.553628,4.16307692 C145.936116,4.89415385 145.27793,5.44615385 144.702942,5.73969231 L144.895221,6.30461538 L140.202872,17.8135385 L139.404174,18.1384615 L138.322605,17.7987692 L138.322605,6.47076923 L139.986558,6.09415385 L139.986558,5.33907692 L134.305081,5.33907692 L134.305081,6.09415385 L135.945,6.48184615 L135.945,17.7710769 L134.37164,18.1384615 L134.37164,18.8953846 L143.059326,18.8953846 L143.059326,18.1384615 L141.659756,17.7766154 L143.246058,13.6043077 L147.592674,13.6043077 L149.117965,17.7470769 L147.481744,18.1384615 L147.481744,18.8953846 L153.055988,18.8953846 Z M147.204419,12.5464615 L143.599186,12.5464615 L145.438779,7.73353846 L147.204419,12.5464615 Z M133.778163,12.1181538 C133.778163,8.16184615 130.71464,5.33907692 126.486349,5.33907692 L120.449895,5.33907692 L120.449895,6.09415385 L122.0325,6.46707692 L122.0325,17.5993846 C121.827279,17.8763077 121.488942,18.1606154 120.923198,18.1606154 C119.867512,18.1606154 119.262942,17.2670769 118.965279,16.7243077 L117.45293,14.0270769 C116.837267,12.8806154 116.136558,12.3396923 114.696314,12.1735385 L114.696314,11.9870769 C116.715244,11.9372308 118.512314,10.5009231 118.512314,8.55507692 C118.512314,6.24184615 116.40464,5.33907692 113.967872,5.33907692 L108.484221,5.33907692 L108.484221,6.09415385 L110.270198,6.46892308 L110.270198,17.7433846 L110.264651,17.7433846 L108.205047,18.1384615 L103.074523,4.16307692 C102.45886,4.89415385 101.802523,5.44615385 101.225686,5.73969231 L101.419814,6.30461538 L96.7348605,17.76 L95.3223488,18.1384615 L95.3223488,18.8953846 L99.5820698,18.8953846 L99.5820698,18.1384615 L98.1880465,17.7766154 L99.7725,13.6043077 L104.115419,13.6043077 L105.642558,17.7470769 L104.004488,18.1384615 L104.004488,18.8953846 L114.396802,18.8953846 L114.396802,18.1384615 L112.647802,17.7710769 L112.647802,12.5206154 C113.829209,12.5963077 114.393105,13.1335385 114.964395,14.2190769 L117.022151,17.8929231 C117.709919,19.0836923 118.748965,19.7003077 120.004326,19.7003077 C120.974965,19.7003077 121.753326,19.1187692 121.958547,18.8953846 L126.61207,18.8953846 C130.57043,18.8953846 133.778163,15.8621538 133.778163,12.1181538 Z M103.727163,12.5464615 L100.123779,12.5464615 L101.959674,7.73353846 L103.727163,12.5464615 Z M113.57407,11.5292308 C113.361453,11.5292308 112.919581,11.5273846 112.647802,11.5236923 L112.647802,6.46892308 L113.808872,6.46892308 C115.263907,6.46892308 116.234547,7.55261538 116.182779,8.89292308 C116.131012,10.2295385 115.171465,11.5292308 113.57407,11.5292308 Z M131.374674,12.1236923 C131.374674,15.5981538 129.403814,17.7766154 126.347686,17.7766154 L124.410105,17.7766154 L124.410105,6.47261538 L126.397605,6.47261538 C129.479616,6.47261538 131.374674,8.59938462 131.374674,12.1236923 Z M95.4942907,6.47446154 L97.0879884,6.09415385 L97.0879884,5.33907692 L92.5564884,5.33907692 L92.5564884,6.09415385 L94.1797674,6.47446154 C94.1797674,6.47446154 94.3036395,13.1944615 94.2426279,14.8929231 C94.1723721,16.8793846 92.6267442,18.2086154 90.5837791,18.2086154 C88.4908953,18.2086154 86.9896395,16.9661538 86.9286279,14.7267692 L86.9286279,6.44861538 L88.505686,6.09415385 L88.505686,5.33907692 L83.0497674,5.33907692 L83.0497674,6.09415385 L84.5972442,6.46153846 L84.5972442,14.7950769 C84.7007791,17.6584615 87.0118256,19.5378462 89.994,19.5378462 C92.9743256,19.5378462 95.2872209,17.8006154 95.3907558,14.7950769 L95.4942907,6.47446154 Z M81.578093,13.0744615 L82.8593372,12.5907692 L82.8593372,11.9667692 L77.6788953,11.9667692 L77.6788953,12.7218462 L79.2115814,13.1076923 L79.2115814,17.4738462 C78.4831395,18.0756923 77.2832442,18.4966154 76.1425116,18.4966154 C73.0549535,18.4966154 71.0803953,15.8990769 71.0803953,12.3027692 C71.0803953,8.81169231 73.0198256,5.83384615 76.1850349,5.83384615 C78.2409419,5.83384615 80.0638953,7.27384615 80.7313256,9.52615385 L81.1695,9.26953846 L81.1695,4.98461538 L80.7775465,4.76861538 L79.9511163,5.808 C79.0858605,5.33907692 77.5993953,4.85353846 76.1924302,4.85353846 C72.0011163,4.85353846 68.5752209,8.26338462 68.5752209,12.3230769 C68.5752209,16.5507692 71.5647907,19.5563077 75.6118953,19.5563077 C77.2684535,19.5563077 78.7918953,19.0449231 79.9936395,18.1015385 L81.1898372,18.8953846 L81.578093,18.8953846 L81.578093,13.0744615 Z M66.3566163,6.47076923 L68.0039302,6.09415385 L68.0039302,5.33907692 L63.3873837,5.33907692 L63.3873837,6.09415385 L65.0457907,6.48184615 L65.1456279,15.3489231 L56.6391279,5.33907692 L53.004314,5.33907692 L53.004314,6.09415385 L54.6516279,6.45784615 L54.7902907,6.528 L54.6682674,17.7433846 L54.6627209,17.7433846 L52.9876744,18.1384615 L47.8571512,4.16307692 C47.2396395,4.89415385 46.5814535,5.44615385 46.0064651,5.73969231 L46.1987442,6.30461538 L41.5156395,17.76 L40.1012791,18.1384615 L40.1012791,18.8953846 L44.3628488,18.8953846 L44.3628488,18.1384615 L42.9669767,17.7766154 L44.5514302,13.6043077 L48.8961977,13.6043077 L50.4233372,17.7470769 L48.7852674,18.1384615 L48.7852674,18.8953846 L57.7133023,18.8953846 L57.7133023,18.1384615 L55.9643023,17.76 L55.8570698,7.94953846 L65.5838023,19.368 L66.2253488,19.368 L66.3566163,6.47076923 Z M48.5079419,12.5464615 L44.9045581,12.5464615 L46.7423023,7.73353846 L48.5079419,12.5464615 Z M42.1497907,6.49107692 L43.8174419,6.09415385 L43.8174419,5.33907692 L39.0197093,5.33907692 L39.0197093,6.09415385 L40.6522326,6.47630769 L37.1024651,15.5501538 L33.3696628,6.46153846 L35.1297558,6.09415385 L35.1297558,5.33907692 L29.0988488,5.33907692 L29.0988488,6.09415385 L30.8219651,6.46892308 L36.183593,19.368 L36.7622791,19.368 L42.1017209,6.49107692 L42.1497907,6.49107692 Z M23.3008953,18.8953846 L28.8751395,18.8953846 L28.8751395,18.1384615 L27.3868256,17.7747692 L22.3709302,4.16307692 C21.7552674,4.89415385 21.0989302,5.44615385 20.522093,5.73969231 L20.7143721,6.30461538 L16.0331163,17.76 L15.0328953,18.1384615 L14.7333837,18.8953846 L18.8803256,18.8953846 L18.8803256,18.1384615 L17.4844535,17.7766154 L19.0670581,13.6043077 L23.4118256,13.6043077 L24.9371163,17.7470769 L23.3008953,18.1384615 L23.3008953,18.8953846 Z M23.0235698,12.5464615 L19.420186,12.5464615 L21.2560814,7.73353846 L23.0235698,12.5464615 Z M14.0807442,18.8953846 L15.4303953,15.456 L14.9219651,15.1753846 L11.9878605,17.8449231 L9.48083721,17.8449231 L9.48083721,6.47815385 L10.9894884,6.09415385 L10.9894884,5.33907692 L5.58348837,5.33907692 L5.58348837,6.09415385 L7.1050814,6.48 L7.1050814,17.7544615 L5.58348837,18.1384615 L5.58348837,18.8953846 L14.0807442,18.8953846 Z" id="Fill-2" fill="#FFFFFE"></path>
                </g>
            </g>
        </g>
    </g>
</svg>